<svg width="138" height="117" viewBox="0 0 138 117" fill="none" xmlns="http://www.w3.org/2000/svg">
<circle cx="69" cy="44" r="44" fill="#DE5C8E"/>
<g clip-path="url(#clip0_78_569)">
<path d="M69.0726 36.3841H50.187C49.9591 36.3841 49.7325 36.3721 49.5046 36.3841C48.9608 36.4027 48.6449 36.1952 48.6343 35.6046C48.6236 34.9821 48.9688 34.8716 49.5059 34.8743C52.2648 34.8916 55.0237 34.8517 57.7812 34.8996C58.6382 34.9142 58.9034 34.6508 58.8847 33.7969C58.8341 31.4331 58.8661 29.068 58.8674 26.7043C58.8674 25.2145 59.0154 25.0575 60.5467 25.0535C64.2132 25.0429 67.8771 25.0363 71.5476 25.0535C74.2718 25.0668 76.996 25.1032 79.7202 25.1626C84.5529 25.2717 89.0284 29.5349 89.4375 34.3861C89.6081 36.4107 89.6081 36.4107 87.5716 36.4107H69.0726V36.3841Z" fill="white"/>
<path d="M69.0324 56.841C62.6039 56.841 56.1759 56.841 49.7483 56.841C49.2578 56.841 48.6514 57.0113 48.6368 56.1759C48.6221 55.3406 49.1899 55.3565 49.763 55.3565H57.3598C58.8659 55.3565 58.8672 55.3565 58.8672 53.9C58.8672 51.5668 58.8899 49.2337 58.8566 46.9019C58.8432 45.984 59.2311 45.6023 60.1254 45.6036C66.4561 45.6116 72.7868 45.5171 79.1176 45.6382C84.9019 45.7499 89.2334 50.1409 89.5453 55.8979C89.588 56.7053 89.2401 56.8636 88.5111 56.861C82.0191 56.8317 75.5257 56.841 69.0324 56.841Z" fill="white"/>
<path d="M69.0871 57.6365H88.2712C89.5347 57.6365 89.5533 57.6551 89.5613 58.9507C89.5613 60.0148 89.5373 61.0896 89.5613 62.1578C89.584 62.9173 89.2468 63.2219 88.5111 63.1727C88.3178 63.1594 88.1219 63.1727 87.9273 63.1727H50.2441C48.6168 63.1727 48.6155 63.1727 48.6128 61.5765C48.6128 60.7025 48.6128 59.8273 48.6128 58.952C48.6221 57.6538 48.6381 57.6365 49.9003 57.6365H69.0871Z" fill="white"/>
<path d="M69.0378 42.6213C62.6742 42.6213 56.311 42.6213 49.9483 42.6213C48.6861 42.6213 48.6261 42.5628 48.6155 41.3151C48.6061 40.3108 48.6541 39.3038 48.6022 38.3022C48.5502 37.3325 48.922 37.0199 49.903 37.0239C57.7264 37.0585 65.5499 37.0425 73.3747 37.0425C78.342 37.0425 83.3093 37.0665 88.2752 37.0239C89.2602 37.0159 89.6227 37.3405 89.5734 38.3049C89.5214 39.3384 89.5254 40.38 89.5734 41.4135C89.616 42.338 89.2575 42.6439 88.3232 42.6399C81.8938 42.6054 75.4658 42.6213 69.0378 42.6213Z" fill="white"/>
<path d="M90.2398 44.0978C90.2398 37.1028 90.2398 30.1078 90.2398 23.1128C90.2398 21.4181 91.1221 20.5855 92.7721 20.6839C93.7836 20.7424 94.5353 21.3969 94.6886 22.4131C94.7683 22.9571 94.8075 23.5062 94.8059 24.0559C94.8112 37.4323 94.8112 50.8077 94.8059 64.1823C94.8108 64.6348 94.7863 65.0871 94.7326 65.5364C94.5447 66.9863 93.697 67.6408 92.1776 67.5317C91.0354 67.4532 90.2478 66.5647 90.2464 65.277C90.2358 58.2173 90.2335 51.1576 90.2398 44.0978Z" fill="white"/>
<path d="M47.9359 44.0739C47.9359 51.0432 47.9359 58.0116 47.9359 64.9791C47.9359 66.7336 46.7444 67.7087 45.0838 67.3362C44.2081 67.138 43.6457 66.59 43.4924 65.7081C43.402 65.1322 43.3601 64.5497 43.3671 63.9668C43.36 50.6801 43.36 37.3919 43.3671 24.1025C43.3605 23.7136 43.3738 23.3247 43.4071 22.9372C43.5817 21.2918 44.3641 20.6028 45.9394 20.6826C47.2002 20.7478 47.9386 21.651 47.9386 23.17C47.9404 30.1375 47.9395 37.1055 47.9359 44.0739Z" fill="white"/>
<path d="M52.7832 26.1323C53.9 26.1243 54.9755 26.5538 55.7784 27.3286C56.5814 28.1033 57.0478 29.1616 57.0774 30.2759C57.1201 32.5731 55.1422 34.5803 52.8258 34.5897C50.5388 34.599 48.6116 32.6649 48.6209 30.369C48.6302 28.0012 50.4548 26.1443 52.7832 26.1323Z" fill="white"/>
<path d="M52.8298 55.0892C50.4481 55.0892 48.6302 53.2974 48.6182 50.9337C48.6062 48.5699 50.4028 46.7462 52.7779 46.7409C55.1769 46.7409 57.0947 48.6032 57.0774 50.9337C57.0644 52.0463 56.6101 53.1084 55.8139 53.8873C55.0177 54.6662 53.9447 55.0984 52.8298 55.0892Z" fill="white"/>
</g>
<path d="M26.8841 112V100.8H29.2361C31.0708 100.8 32.4255 101.301 33.3001 102.304C34.1855 103.307 34.6281 104.672 34.6281 106.4C34.6281 108.128 34.1855 109.493 33.3001 110.496C32.4255 111.499 31.0708 112 29.2361 112H26.8841ZM28.2281 110.768H29.2041C30.1855 110.768 30.9695 110.587 31.5561 110.224C32.1535 109.861 32.5855 109.355 32.8521 108.704C33.1188 108.053 33.2521 107.285 33.2521 106.4C33.2521 105.515 33.1188 104.747 32.8521 104.096C32.5855 103.445 32.1535 102.939 31.5561 102.576C30.9695 102.213 30.1855 102.032 29.2041 102.032H28.2281V110.768ZM40.2219 112.192C39.4752 112.192 38.8139 112.021 38.2379 111.68C37.6619 111.339 37.2085 110.859 36.8779 110.24C36.5472 109.611 36.3819 108.875 36.3819 108.032C36.3819 107.189 36.5472 106.459 36.8779 105.84C37.2085 105.211 37.6619 104.725 38.2379 104.384C38.8139 104.043 39.4752 103.872 40.2219 103.872C40.9685 103.872 41.6299 104.043 42.2059 104.384C42.7819 104.725 43.2352 105.211 43.5659 105.84C43.8965 106.459 44.0619 107.189 44.0619 108.032C44.0619 108.875 43.8965 109.611 43.5659 110.24C43.2352 110.859 42.7819 111.339 42.2059 111.68C41.6299 112.021 40.9685 112.192 40.2219 112.192ZM40.2219 110.912C40.6805 110.912 41.0965 110.811 41.4699 110.608C41.8432 110.405 42.1365 110.091 42.3499 109.664C42.5739 109.237 42.6859 108.693 42.6859 108.032C42.6859 107.371 42.5739 106.827 42.3499 106.4C42.1365 105.973 41.8432 105.659 41.4699 105.456C41.0965 105.253 40.6805 105.152 40.2219 105.152C39.7739 105.152 39.3632 105.253 38.9899 105.456C38.6165 105.659 38.3179 105.973 38.0939 106.4C37.8699 106.827 37.7579 107.371 37.7579 108.032C37.7579 109.024 37.9979 109.755 38.4779 110.224C38.9579 110.683 39.5392 110.912 40.2219 110.912ZM46.3596 112V110.848H48.3916V105.616C48.3916 105.349 48.2636 105.216 48.0076 105.216H46.5676V104.064H48.5036C48.8556 104.064 49.1383 104.16 49.3516 104.352C49.565 104.544 49.6716 104.827 49.6716 105.2V105.536H49.7356C49.8636 105.003 50.1036 104.592 50.4556 104.304C50.8183 104.016 51.3196 103.872 51.9596 103.872H53.4156V105.296H51.7676C51.117 105.296 50.6156 105.515 50.2636 105.952C49.9116 106.379 49.7356 106.928 49.7356 107.6V110.848H52.2316V112H46.3596ZM55.2014 112V104.064H56.3054L56.4494 104.992H56.5294C56.668 104.672 56.876 104.405 57.1534 104.192C57.4414 103.979 57.788 103.872 58.1934 103.872C58.5987 103.872 58.94 103.973 59.2174 104.176C59.5054 104.368 59.7134 104.64 59.8414 104.992H59.9054C60.044 104.672 60.268 104.405 60.5774 104.192C60.8867 103.979 61.26 103.872 61.6974 103.872C62.3054 103.872 62.7587 104.08 63.0574 104.496C63.3667 104.901 63.5214 105.445 63.5214 106.128V112H62.2094V106.336C62.2094 105.952 62.1294 105.648 61.9694 105.424C61.82 105.2 61.5747 105.088 61.2334 105.088C60.8814 105.088 60.5934 105.221 60.3694 105.488C60.1454 105.755 60.0334 106.133 60.0334 106.624V112H58.7054V106.336C58.7054 105.952 58.6307 105.648 58.4814 105.424C58.332 105.2 58.0867 105.088 57.7454 105.088C57.3934 105.088 57.1 105.221 56.8654 105.488C56.6414 105.755 56.5294 106.133 56.5294 106.624V112H55.2014ZM69.0031 112.032C68.6725 112.032 68.3898 111.92 68.1551 111.696C67.9205 111.472 67.8031 111.195 67.8031 110.864C67.8031 110.544 67.9205 110.272 68.1551 110.048C68.3898 109.824 68.6725 109.712 69.0031 109.712C69.3338 109.712 69.6165 109.824 69.8511 110.048C70.0858 110.272 70.2031 110.544 70.2031 110.864C70.2031 111.195 70.0858 111.472 69.8511 111.696C69.6165 111.92 69.3338 112.032 69.0031 112.032ZM75.1889 112V100.8H76.5329V110.784H82.2129V112H75.1889ZM88.0946 102.656C87.7746 102.656 87.508 102.549 87.2946 102.336C87.0813 102.123 86.9746 101.867 86.9746 101.568C86.9746 101.259 87.0813 101.003 87.2946 100.8C87.508 100.587 87.7746 100.48 88.0946 100.48C88.404 100.48 88.6653 100.587 88.8786 100.8C89.1026 101.003 89.2146 101.259 89.2146 101.568C89.2146 101.867 89.1026 102.123 88.8786 102.336C88.6653 102.549 88.404 102.656 88.0946 102.656ZM84.9906 112V110.848H87.5186V105.616C87.5186 105.349 87.3853 105.216 87.1186 105.216H85.2626V104.064H87.4386C88.388 104.064 88.8626 104.539 88.8626 105.488V110.848H91.3906V112H84.9906ZM94.4564 115.52V114.288H95.4324C95.8377 114.288 96.1257 114.208 96.2964 114.048C96.467 113.888 96.5524 113.605 96.5524 113.2V105.216H94.5844V104.064H96.5524V102.8C96.5524 101.979 96.7497 101.387 97.1444 101.024C97.539 100.661 98.1364 100.48 98.9364 100.48H100.84V101.696H99.0164C98.6217 101.696 98.3337 101.781 98.1524 101.952C97.9817 102.112 97.8964 102.395 97.8964 102.8V104.064H100.84V105.216H97.8964V113.2C97.8964 114.021 97.699 114.613 97.3044 114.976C96.9097 115.339 96.3177 115.52 95.5284 115.52H94.4564ZM107.458 112.192C106.711 112.192 106.05 112.021 105.474 111.68C104.909 111.328 104.461 110.843 104.13 110.224C103.799 109.595 103.634 108.864 103.634 108.032C103.634 107.2 103.794 106.475 104.114 105.856C104.445 105.227 104.898 104.741 105.474 104.4C106.05 104.048 106.722 103.872 107.49 103.872C108.258 103.872 108.914 104.048 109.458 104.4C110.002 104.741 110.418 105.195 110.706 105.76C110.994 106.325 111.138 106.933 111.138 107.584C111.138 107.701 111.133 107.819 111.122 107.936C111.122 108.053 111.122 108.187 111.122 108.336H104.962C104.994 108.923 105.127 109.413 105.362 109.808C105.607 110.192 105.911 110.48 106.274 110.672C106.647 110.864 107.042 110.96 107.458 110.96C108.045 110.96 108.503 110.837 108.834 110.592C109.165 110.347 109.415 110.005 109.586 109.568H110.914C110.733 110.304 110.354 110.928 109.778 111.44C109.202 111.941 108.429 112.192 107.458 112.192ZM107.458 105.072C106.839 105.072 106.295 105.259 105.826 105.632C105.367 106.005 105.085 106.528 104.978 107.2H109.81C109.767 106.539 109.527 106.021 109.09 105.648C108.663 105.264 108.119 105.072 107.458 105.072Z" fill="black"/>
<defs>
<clipPath id="clip0_78_569">
<rect width="51.4562" height="46.8678" fill="white" transform="translate(43.3604 20.6759)"/>
</clipPath>
</defs>
</svg>
