<svg width="400" height="317" viewBox="0 0 400 317" fill="none" xmlns="http://www.w3.org/2000/svg">
<g clip-path="url(#clip0_50_3362)">
<path opacity="0.3" d="M380.72 130.018L371.202 134.047C369.9 132.583 368.506 131.205 367.029 129.92L370.958 120.308C371.691 118.484 371.676 116.443 370.914 114.63C370.153 112.818 368.708 111.381 366.894 110.634L352.495 104.744C350.682 104.023 348.658 104.046 346.861 104.809C345.065 105.572 343.639 107.013 342.892 108.822L338.999 118.434C337.049 118.312 335.093 118.312 333.142 118.434L329.127 108.871C328.366 107.06 326.919 105.626 325.104 104.885C323.29 104.143 321.257 104.154 319.451 104.916L305.064 110.989C303.261 111.759 301.834 113.213 301.095 115.035C300.357 116.857 300.367 118.898 301.123 120.712L305.137 130.275C303.679 131.577 302.305 132.972 301.025 134.451L291.446 130.532C289.628 129.796 287.594 129.812 285.788 130.576C283.982 131.34 282.55 132.79 281.806 134.61L275.937 149.059C275.203 150.883 275.219 152.925 275.98 154.737C276.741 156.55 278.187 157.986 280 158.733L289.579 162.651C289.457 164.604 289.457 166.563 289.579 168.517L280.049 172.545C278.245 173.315 276.819 174.769 276.08 176.591C275.342 178.413 275.351 180.453 276.107 182.268L282.135 196.656C282.902 198.465 284.352 199.897 286.167 200.638C287.982 201.379 290.016 201.369 291.824 200.611L301.354 196.582C302.653 198.045 304.047 199.419 305.528 200.697L301.611 210.309C300.874 212.133 300.888 214.175 301.65 215.989C302.411 217.802 303.859 219.238 305.674 219.983L320.073 225.872C321.889 226.613 323.923 226.6 325.73 225.838C327.537 225.076 328.969 223.627 329.713 221.807L333.618 212.195C335.564 212.317 337.517 212.317 339.463 212.195L343.478 221.758C344.242 223.567 345.689 224.999 347.501 225.742C349.314 226.486 351.346 226.479 353.154 225.726L367.492 219.676C368.394 219.295 369.212 218.74 369.9 218.04C370.587 217.341 371.13 216.513 371.497 215.603C371.864 214.692 372.049 213.718 372.04 212.736C372.032 211.754 371.83 210.784 371.446 209.88L367.431 200.329C368.88 199.021 370.249 197.626 371.531 196.154L381.123 200.072C382.939 200.801 384.969 200.782 386.771 200.018C388.574 199.255 390.004 197.809 390.75 195.995L396.632 181.545C397.363 179.719 397.346 177.678 396.585 175.864C395.824 174.05 394.381 172.611 392.569 171.86L382.99 167.953C383.112 166 383.112 164.041 382.99 162.088L392.52 158.059C394.323 157.29 395.75 155.835 396.488 154.014C397.227 152.192 397.217 150.151 396.461 148.337L390.482 133.973C390.1 133.07 389.544 132.252 388.847 131.564C388.149 130.877 387.324 130.334 386.417 129.967C385.511 129.599 384.541 129.415 383.564 129.424C382.586 129.433 381.62 129.635 380.72 130.018ZM369.213 151.398C371.952 157.935 372.699 165.14 371.357 172.102C370.016 179.064 366.648 185.471 361.678 190.513C356.708 195.554 350.36 199.003 343.437 200.424C336.513 201.844 329.326 201.173 322.783 198.495C316.239 195.816 310.635 191.251 306.677 185.376C302.72 179.501 300.587 172.581 300.549 165.49C300.511 158.398 302.57 151.455 306.464 145.538C310.359 139.621 315.914 134.996 322.428 132.247C326.753 130.42 331.394 129.466 336.087 129.44C340.779 129.414 345.43 130.316 349.775 132.095C354.12 133.873 358.073 136.494 361.408 139.806C364.743 143.118 367.395 147.057 369.213 151.398Z" fill="#E87EA9"/>
<path opacity="0.3" d="M135.534 80.6338L126.004 84.6502C124.702 83.1866 123.308 81.8083 121.83 80.5236L125.747 70.9112C126.485 69.0873 126.474 67.0443 125.714 65.2291C124.955 63.414 123.51 61.9744 121.696 61.2254L107.285 55.3478C105.464 54.6041 103.424 54.6158 101.612 55.3803C99.8002 56.1448 98.3646 57.5996 97.6206 59.4254L93.7157 69.0377C91.7693 68.9153 89.8171 68.9153 87.8707 69.0377L83.8561 59.4744C83.0891 57.6647 81.6397 56.233 79.8244 55.492C78.0091 54.7509 75.9753 54.7607 74.1672 55.5192L59.8658 61.5928C58.0602 62.3601 56.6307 63.8136 55.8899 65.6354C55.149 67.4573 55.1571 69.4994 55.9122 71.3153L59.9268 80.8787C58.4724 82.1809 57.1029 83.5757 55.8268 85.0543L46.2356 81.1359C44.419 80.4069 42.3892 80.4263 40.5868 81.1896C38.7843 81.953 37.3545 83.3989 36.6077 85.2135L30.7505 99.6626C30.013 101.485 30.0252 103.526 30.7845 105.339C31.5439 107.152 32.9884 108.59 34.8018 109.336L44.3808 113.255C44.2588 115.212 44.2588 117.175 44.3808 119.132L34.8628 123.149C33.0572 123.916 31.6277 125.369 30.8868 127.191C30.146 129.013 30.154 131.055 30.9091 132.871L36.9494 147.259C37.7113 149.07 39.1582 150.504 40.9724 151.245C42.7867 151.987 44.82 151.976 46.626 151.214L56.1318 147.186C57.4233 148.651 58.8136 150.026 60.2929 151.3L56.3759 160.912C55.6419 162.738 55.6572 164.781 56.4185 166.596C57.1797 168.41 58.6251 169.849 60.4393 170.598L74.8506 176.476C75.7487 176.844 76.7103 177.03 77.6803 177.025C78.6504 177.02 79.6099 176.823 80.5041 176.445C81.3982 176.068 82.2095 175.517 82.8914 174.825C83.5733 174.133 84.1126 173.312 84.4784 172.411L88.3832 162.798C90.3337 162.921 92.2899 162.921 94.2404 162.798L98.2429 172.362C98.6214 173.265 99.1738 174.084 99.8684 174.773C100.563 175.461 101.386 176.005 102.291 176.374C103.196 176.742 104.164 176.928 105.14 176.92C106.117 176.913 107.082 176.712 107.981 176.329L122.319 170.206C124.12 169.434 125.544 167.98 126.283 166.159C127.021 164.338 127.013 162.299 126.26 160.484L122.245 150.92C123.7 149.618 125.069 148.223 126.345 146.745L135.937 150.663C137.753 151.4 139.786 151.386 141.592 150.624C143.398 149.863 144.83 148.415 145.577 146.598L151.446 132.137C152.18 130.312 152.164 128.271 151.403 126.459C150.641 124.646 149.196 123.21 147.383 122.463L137.804 118.557C137.926 116.599 137.926 114.636 137.804 112.679L147.334 108.651C149.134 107.89 150.562 106.447 151.307 104.635C152.052 102.824 152.054 100.79 151.312 98.9769L145.211 84.589C144.446 82.7801 142.999 81.3487 141.186 80.6075C139.372 79.8663 137.34 79.8758 135.534 80.6338ZM124.015 102.014C126.756 108.55 127.505 115.755 126.166 122.718C124.826 129.681 121.459 136.089 116.491 141.132C111.522 146.174 105.175 149.625 98.2514 151.048C91.3282 152.47 84.1401 151.801 77.5961 149.124C71.0521 146.447 65.4462 141.882 61.4873 136.008C57.5285 130.134 55.3946 123.213 55.3554 116.122C55.3162 109.031 57.3736 102.087 61.2672 96.1688C65.1609 90.2508 70.7161 85.6244 77.2301 82.8747C85.9634 79.1881 95.7983 79.1334 104.572 82.7226C113.345 86.3117 120.339 93.2508 124.015 102.014Z" fill="#E87EA9"/>
<path opacity="0.1" d="M392.044 277.044C392.044 299.086 304.283 317 196.022 317C87.7608 317 0 299.11 0 277.044C0 254.979 87.7608 237.089 196.022 237.089C304.283 237.089 392.044 254.979 392.044 277.044Z" fill="#E87EA9"/>
<path d="M82.1475 17.4001C78.0032 17.4016 73.9772 18.7877 70.7049 21.3397C67.4326 23.8918 65.1001 27.4645 64.0755 31.4942C63.2825 28.9342 61.7217 26.682 59.6062 25.0449C57.4907 23.4077 54.9234 22.4652 52.2545 22.3461C49.5856 22.2269 46.945 22.9368 44.693 24.3789C42.4409 25.821 40.687 27.9252 39.6704 30.4044C38.83 29.1759 37.6371 28.2329 36.2502 27.7005C34.8632 27.1681 33.3477 27.0715 31.9048 27.4235C30.4618 27.7756 29.1597 28.5596 28.1711 29.6715C27.1825 30.7835 26.5542 32.1708 26.3696 33.6493H100.659C100.056 29.1512 97.8478 25.0251 94.4436 22.0369C91.0394 19.0487 86.6704 17.4012 82.1475 17.4001Z" fill="#DFF2F8"/>
<path d="M262.428 4.89806C259.898 4.89931 257.424 5.64151 255.308 7.0336C253.193 8.42569 251.528 10.4071 250.519 12.7349C249.231 8.90957 246.745 5.60455 243.432 3.31281C240.119 1.02108 236.157 -0.134546 232.136 0.0183098C228.115 0.171166 224.251 1.62431 221.121 4.161C217.99 6.69768 215.761 10.182 214.765 14.0941C213.976 11.5294 212.417 9.27217 210.3 7.63141C208.183 5.99065 205.613 5.04664 202.941 4.92866C200.269 4.81068 197.625 5.52449 195.373 6.97235C193.121 8.42021 191.37 10.5313 190.36 13.0165C189.522 11.7839 188.329 10.8366 186.941 10.3007C185.553 9.76486 184.036 9.66583 182.59 10.0168C181.145 10.3678 179.84 11.1521 178.85 12.2655C177.86 13.3788 177.231 14.7684 177.047 16.2492H275.29C274.886 13.112 273.358 10.2295 270.991 8.14051C268.624 6.05147 265.58 4.89885 262.428 4.89806Z" fill="#DFF2F8"/>
<path d="M382.855 10.4817C379.435 10.4825 376.093 11.5024 373.251 13.4121C370.41 15.3218 368.197 18.0352 366.894 21.2084C365.772 19.5811 364.184 18.3333 362.34 17.6294C360.497 16.9255 358.484 16.7985 356.567 17.2651C354.65 17.7318 352.919 18.7701 351.602 20.2435C350.285 21.7168 349.443 23.5559 349.188 25.5186H400C399.439 21.3549 397.392 17.5365 394.24 14.7715C391.087 12.0064 387.042 10.4823 382.855 10.4817Z" fill="#DFF2F8"/>
<path d="M68.1392 227.354V240.199C68.1392 244.096 69.6819 247.834 72.428 250.589C75.1741 253.345 78.8986 254.893 82.7822 254.893H317.267C321.15 254.893 324.875 253.345 327.621 250.589C330.367 247.834 331.91 244.096 331.91 240.199V227.354H68.1392Z" fill="#DE5C8E"/>
<path d="M159.609 227.354V231.285C159.609 232.477 160.081 233.62 160.921 234.462C161.761 235.305 162.9 235.779 164.088 235.779H235.9C237.087 235.775 238.224 235.301 239.063 234.459C239.902 233.617 240.375 232.476 240.378 231.285V227.354H159.609Z" fill="#DE5C8E"/>
<path d="M301.891 74.2783H98.0842C91.0686 74.2783 85.3813 79.9854 85.3813 87.0254V214.521C85.3813 221.561 91.0686 227.268 98.0842 227.268H301.891C308.907 227.268 314.594 221.561 314.594 214.521V87.0254C314.594 79.9854 308.907 74.2783 301.891 74.2783Z" fill="#DE5C8E"/>
<path d="M306.309 85.1646H93.6792V216.395H306.309V85.1646Z" fill="#DFF2F8"/>
<path d="M306.309 85.1646H93.6792V216.395H306.309V85.1646Z" fill="#DFF2F8"/>
<mask id="mask0_50_3362" style="mask-type:luminance" maskUnits="userSpaceOnUse" x="93" y="85" width="214" height="132">
<path d="M306.309 85.1646H93.6792V216.395H306.309V85.1646Z" fill="white"/>
</mask>
<g mask="url(#mask0_50_3362)">
<path opacity="0.4" d="M240.611 -4.55139L40.4551 196.301L49.3511 205.228L249.507 4.37559L240.611 -4.55139Z" fill="white"/>
<path opacity="0.4" d="M355.065 -62.5444L-24.8574 318.701L-7.97142 335.645L371.951 -45.5996L355.065 -62.5444Z" fill="white"/>
<path opacity="0.4" d="M379.578 57.4486L179.422 258.301L188.318 267.228L388.474 66.3756L379.578 57.4486Z" fill="white"/>
</g>
<path d="M196.656 116.585L190.665 119.12C189.842 118.2 188.961 117.333 188.029 116.524L190.47 110.402C190.703 109.832 190.822 109.221 190.821 108.605C190.819 107.988 190.696 107.379 190.459 106.81C190.222 106.241 189.876 105.725 189.44 105.291C189.004 104.857 188.488 104.513 187.919 104.279L178.853 100.606C178.285 100.371 177.676 100.252 177.062 100.253C176.448 100.255 175.84 100.379 175.274 100.616C174.707 100.854 174.193 101.201 173.76 101.639C173.327 102.076 172.984 102.595 172.752 103.165L170.311 109.214C169.092 109.141 167.869 109.141 166.65 109.214L164.124 103.189C163.633 102.057 162.717 101.166 161.575 100.707C160.433 100.249 159.156 100.261 158.023 100.74L149.005 104.561C147.873 105.048 146.98 105.967 146.522 107.115C146.065 108.263 146.08 109.547 146.565 110.683L149.091 116.708C148.148 117.539 147.259 118.431 146.431 119.377L140.329 116.928C139.761 116.694 139.151 116.575 138.537 116.578C137.922 116.581 137.314 116.705 136.747 116.944C136.18 117.183 135.666 117.531 135.234 117.97C134.802 118.408 134.46 118.928 134.228 119.5L130.567 128.598C130.334 129.168 130.215 129.778 130.216 130.395C130.218 131.011 130.341 131.621 130.578 132.189C130.815 132.758 131.161 133.274 131.597 133.708C132.032 134.143 132.549 134.487 133.118 134.72L139.219 137.169C139.141 138.393 139.141 139.62 139.219 140.843L133.215 143.378C132.087 143.87 131.198 144.79 130.742 145.936C130.285 147.082 130.297 148.363 130.775 149.5L134.57 158.549C135.063 159.679 135.98 160.569 137.121 161.027C138.262 161.485 139.537 161.475 140.671 160.998L146.662 158.463C147.482 159.379 148.358 160.242 149.286 161.047L146.845 167.096C146.378 168.249 146.385 169.541 146.866 170.689C147.346 171.837 148.26 172.746 149.408 173.219L158.474 176.892C159.043 177.128 159.653 177.248 160.268 177.246C160.883 177.245 161.492 177.121 162.059 176.881C162.626 176.642 163.14 176.293 163.572 175.854C164.004 175.414 164.345 174.893 164.576 174.321L167.016 168.272C168.235 168.344 169.458 168.344 170.677 168.272L173.203 174.284C173.697 175.414 174.613 176.304 175.754 176.762C176.895 177.22 178.17 177.21 179.304 176.733L188.322 172.925C189.45 172.432 190.339 171.513 190.796 170.367C191.252 169.22 191.241 167.94 190.762 166.802L188.237 160.778C189.146 159.957 190.006 159.082 190.811 158.157L196.913 160.606C197.481 160.841 198.089 160.96 198.703 160.958C199.317 160.957 199.925 160.833 200.492 160.596C201.058 160.358 201.573 160.011 202.006 159.573C202.438 159.136 202.781 158.617 203.014 158.047L206.675 148.949C206.908 148.378 207.026 147.767 207.024 147.15C207.021 146.533 206.897 145.923 206.659 145.354C206.421 144.786 206.074 144.27 205.637 143.836C205.199 143.402 204.681 143.059 204.112 142.827L198.084 140.377C198.162 139.154 198.162 137.927 198.084 136.704L204.075 134.182C205.203 133.689 206.092 132.77 206.549 131.623C207.006 130.477 206.994 129.196 206.516 128.059L202.721 118.998C202.221 117.884 201.308 117.009 200.176 116.558C199.044 116.108 197.781 116.118 196.656 116.585ZM185.479 131.72C186.875 135.044 187.257 138.707 186.577 142.249C185.898 145.79 184.187 149.05 181.661 151.615C179.136 154.181 175.908 155.937 172.388 156.662C168.868 157.387 165.212 157.048 161.883 155.688C158.555 154.328 155.703 152.008 153.689 149.022C151.674 146.035 150.587 142.516 150.566 138.91C150.545 135.304 151.59 131.772 153.569 128.762C155.548 125.751 158.372 123.397 161.684 121.998C166.124 120.121 171.125 120.091 175.587 121.915C180.05 123.738 183.608 127.265 185.479 131.72Z" fill="#E87EA9"/>
<path d="M260.342 127.079L256.254 128.818C255.689 128.186 255.086 127.589 254.448 127.03L256.144 122.879C256.459 122.091 256.451 121.211 256.121 120.429C255.792 119.647 255.169 119.027 254.387 118.704L248.164 116.157C247.38 115.837 246.503 115.842 245.723 116.17C244.943 116.498 244.324 117.123 244.003 117.908L242.306 122.071C241.465 122.016 240.622 122.016 239.78 122.071L238.048 117.932C237.714 117.152 237.088 116.536 236.304 116.218C235.52 115.899 234.643 115.903 233.862 116.23L227.676 118.838C226.894 119.168 226.275 119.796 225.955 120.584C225.634 121.371 225.639 122.254 225.967 123.039L227.7 127.177C227.07 127.74 226.475 128.341 225.918 128.977L221.757 127.349C220.972 127.03 220.093 127.036 219.313 127.367C218.533 127.697 217.916 128.325 217.596 129.112L215.058 135.357C214.74 136.145 214.747 137.027 215.076 137.81C215.405 138.592 216.031 139.212 216.815 139.533L220.952 141.222C220.897 142.066 220.897 142.913 220.952 143.757L216.84 145.508C216.058 145.838 215.439 146.466 215.119 147.253C214.798 148.041 214.803 148.924 215.131 149.708L217.743 155.917C217.904 156.304 218.14 156.656 218.437 156.953C218.735 157.249 219.087 157.483 219.475 157.642C219.863 157.802 220.278 157.883 220.697 157.881C221.115 157.879 221.53 157.794 221.916 157.631L226.04 155.892C226.606 156.52 227.209 157.113 227.846 157.668L226.15 161.819C225.835 162.608 225.843 163.491 226.172 164.275C226.501 165.058 227.124 165.681 227.907 166.006L234.131 168.553C234.916 168.869 235.793 168.861 236.573 168.531C237.352 168.201 237.97 167.575 238.292 166.79L239.976 162.639C240.821 162.682 241.668 162.682 242.514 162.639L244.247 166.766C244.575 167.55 245.201 168.171 245.986 168.492C246.77 168.814 247.65 168.809 248.432 168.48L254.619 165.859C255.4 165.53 256.019 164.902 256.34 164.114C256.66 163.327 256.655 162.444 256.327 161.659L254.594 157.533C255.221 156.966 255.812 156.361 256.364 155.721L260.513 157.423C261.298 157.738 262.175 157.73 262.955 157.4C263.734 157.07 264.352 156.444 264.674 155.659L267.236 149.39C267.551 148.602 267.543 147.721 267.214 146.939C266.885 146.157 266.261 145.537 265.479 145.214L261.342 143.525C261.397 142.68 261.397 141.834 261.342 140.99L265.455 139.251C266.236 138.921 266.855 138.294 267.175 137.506C267.496 136.718 267.491 135.835 267.163 135.051L264.564 128.83C264.402 128.437 264.164 128.079 263.864 127.777C263.564 127.476 263.208 127.237 262.816 127.074C262.423 126.911 262.003 126.828 261.578 126.829C261.154 126.83 260.733 126.915 260.342 127.079ZM252.593 137.475C253.552 139.759 253.814 142.277 253.346 144.71C252.879 147.143 251.703 149.383 249.967 151.145C248.231 152.907 246.013 154.113 243.593 154.611C241.174 155.108 238.662 154.874 236.376 153.938C234.089 153.002 232.13 151.407 230.747 149.354C229.364 147.301 228.619 144.883 228.606 142.405C228.593 139.927 229.313 137.5 230.674 135.433C232.035 133.365 233.977 131.749 236.254 130.79C237.764 130.15 239.385 129.815 241.024 129.804C242.663 129.794 244.288 130.109 245.806 130.73C247.324 131.351 248.705 132.266 249.87 133.424C251.034 134.581 251.96 135.958 252.593 137.475Z" fill="#DE5C8E"/>
<path d="M288.139 198.076C288.139 199.05 287.753 199.985 287.067 200.673C286.38 201.362 285.449 201.749 284.478 201.749H115.534C114.563 201.749 113.632 201.362 112.945 200.673C112.259 199.985 111.873 199.05 111.873 198.076C111.873 197.102 112.259 196.167 112.945 195.478C113.632 194.789 114.563 194.402 115.534 194.402H284.442C285.413 194.402 286.344 194.789 287.03 195.478C287.717 196.167 288.102 197.102 288.102 198.076H288.139Z" fill="white"/>
<path d="M209.884 194.366H115.534C114.553 194.366 113.613 194.757 112.919 195.452C112.226 196.148 111.836 197.092 111.836 198.076C111.836 199.06 112.226 200.004 112.919 200.7C113.613 201.395 114.553 201.786 115.534 201.786H209.884V194.366Z" fill="url(#paint0_linear_50_3362)"/>
<path d="M387.261 42.221L371.324 61.8131V41.8292H369.201V42.3068L353.337 61.8988V41.8292H351.214V42.5394L336.852 60.2335V40.7761H154.899V66.9805H336.852V63.6009L351.214 45.9068V66.2214H352.532L369.201 45.6741V66.2214H370.519L388.908 43.568L387.261 42.221ZM317.974 61.3356V42.8578H332.935L317.974 61.3356ZM299.988 42.8578H315.387L299.988 61.8621V42.8578ZM282.184 42.8578H297.584L282.184 61.8621V42.8578ZM264.198 43.568V42.8578H279.597L264.198 61.8621V43.568ZM246.65 42.8578H262.05L246.65 61.8621V42.8578ZM228.664 42.8578H244.051L228.664 61.8621V42.8578ZM210.86 42.8578H226.248L210.86 61.8621V42.8578ZM192.874 42.8578H208.261L192.874 61.8621V42.8578ZM174.948 42.8578H190.36L174.948 61.8621V42.8578ZM157.194 42.8578H172.581L157.194 61.8621V42.8578ZM172.825 45.919V64.8989H157.499L172.825 45.919ZM190.763 45.7109V64.8989H175.253L190.763 45.7109ZM208.749 45.6374V64.8989H193.179L208.749 45.6374ZM226.541 45.8701V64.8989H211.165L226.541 45.8701ZM244.527 45.6374V64.8989H228.969L244.527 45.6374ZM262.087 46.1762V64.8989H246.956L262.087 46.1762ZM280.073 45.6374V64.8989H264.503L280.073 45.6374ZM297.877 45.8701V64.8989H282.489L297.877 45.8701ZM315.424 46.1639V64.8989H300.293L315.424 46.1639ZM333.411 46.1639V64.8989H318.279L333.411 46.1639Z" fill="#CCC4C0"/>
<path d="M390.201 40.7761H208.237V66.9805H390.201V40.7761ZM210.36 64.8989V42.8578H388.042V64.8989H210.36Z" fill="#CCC4C0"/>
<path d="M297.877 41.8291V66.2213H299.195L317.572 43.5679L315.937 42.2209L300 61.862V41.8291H297.877Z" fill="#CCC4C0"/>
<path d="M279.89 41.8291V66.2213H281.196L299.585 43.5679L297.95 42.2209L282.001 61.862V41.8291H279.89Z" fill="#CCC4C0"/>
<path d="M262.086 41.8291V66.2213H263.404L281.794 43.5679L280.146 42.2209L264.21 61.862V41.8291H262.086Z" fill="#CCC4C0"/>
<path d="M244.1 41.8291V66.2213H245.406L263.807 43.5679L262.16 42.2209L246.223 61.862V41.8291H244.1Z" fill="#CCC4C0"/>
<path d="M226.174 41.8291V66.2213H227.492L245.869 43.5679L244.234 42.2209L228.298 61.862V41.8291H226.174Z" fill="#CCC4C0"/>
<path d="M208.42 41.8291V66.2213H209.726L228.115 43.5679L226.48 42.2209L210.531 61.862V41.8291H208.42Z" fill="#CCC4C0"/>
<path d="M354.485 35.4617H317.779V72.2948H354.485V35.4617Z" fill="#E87EA9"/>
<path d="M323.063 71.4131V253.999H349.189V71.4131H323.063ZM347.065 251.881H325.186V73.5315H347.065V251.881Z" fill="#CCC4C0"/>
<path d="M324.125 92.4745H348.432V91.1642L325.857 72.7109L324.515 74.3518L344.088 90.3561H324.125V92.4745Z" fill="#CCC4C0"/>
<path d="M324.125 110.524H348.432V109.214L325.857 90.7603L324.515 92.4133L344.088 108.405H324.125V110.524Z" fill="#CCC4C0"/>
<path d="M324.125 128.389H348.432V127.079L325.857 108.626L324.515 110.267L344.088 126.259H324.125V128.389Z" fill="#CCC4C0"/>
<path d="M324.125 146.439H348.432V145.129L325.857 126.675L324.515 128.316L344.088 144.32H324.125V146.439Z" fill="#CCC4C0"/>
<path d="M324.125 164.047H348.432V162.737L325.857 144.284L324.515 145.925L344.088 161.929H324.125V164.047Z" fill="#CCC4C0"/>
<path d="M324.125 182.108H348.432V180.786L325.857 162.333L324.515 163.986L344.088 179.978H324.125V182.108Z" fill="#CCC4C0"/>
<path d="M324.125 199.962H348.432V198.652L325.857 180.198L324.515 181.839L344.088 197.831H324.125V199.962Z" fill="#CCC4C0"/>
<path d="M324.125 218.011H348.432V216.701L325.857 198.248L324.515 199.901L344.088 215.893H324.125V218.011Z" fill="#CCC4C0"/>
<path d="M324.125 235.999H348.432V234.689L325.857 216.235L324.515 217.888L344.088 233.88H324.125V235.999Z" fill="#CCC4C0"/>
<path d="M324.125 253.828H348.432V252.506L325.857 234.052L324.515 235.705L344.088 251.697H324.125V253.828Z" fill="#CCC4C0"/>
<path d="M174.594 66.9805H154.899V74.2908H174.594V66.9805Z" fill="#E87EA9"/>
<path d="M190.287 104.426L165.809 89.8418V74.2783H163.685V89.9275L146.431 104.903C145.137 106.018 147.017 107.891 148.298 106.777L158.194 98.2052L164.161 93.0622L164.881 92.4377L188.957 106.764C189.266 106.941 189.632 106.988 189.976 106.894C190.319 106.8 190.611 106.573 190.787 106.262C190.964 105.952 191.01 105.585 190.916 105.24C190.822 104.896 190.596 104.603 190.287 104.426Z" fill="#CCC4C0"/>
<path d="M164.112 210.37H151.19V306.188H164.112V210.37Z" fill="white"/>
<path d="M255.839 210.37H242.917V306.188H255.839V210.37Z" fill="white"/>
<path d="M246.98 221.599H159.634C154.256 221.599 149.896 225.974 149.896 231.37V269.709C149.896 275.106 154.256 279.481 159.634 279.481H246.98C252.358 279.481 256.718 275.106 256.718 269.709V231.37C256.718 225.974 252.358 221.599 246.98 221.599Z" fill="#FFC536"/>
<path d="M246.98 281.636H159.634C156.499 281.633 153.493 280.382 151.276 278.157C149.06 275.933 147.813 272.917 147.81 269.771V231.431C147.813 228.285 149.06 225.269 151.276 223.045C153.493 220.82 156.499 219.569 159.634 219.566H246.98C250.115 219.569 253.12 220.82 255.337 223.045C257.554 225.269 258.801 228.285 258.804 231.431V269.771C258.801 272.917 257.554 275.933 255.337 278.157C253.12 280.382 250.115 281.633 246.98 281.636ZM159.634 223.766C157.607 223.766 155.663 224.573 154.228 226.01C152.794 227.448 151.986 229.397 151.983 231.431V269.771C151.983 271.807 152.789 273.76 154.224 275.2C155.659 276.639 157.605 277.448 159.634 277.448H246.98C249.008 277.445 250.952 276.635 252.386 275.196C253.82 273.757 254.628 271.806 254.631 269.771V231.431C254.624 229.398 253.816 227.45 252.382 226.014C250.948 224.577 249.006 223.769 246.98 223.766H159.634Z" fill="white"/>
<path d="M169.775 250.116C168.003 250.116 166.621 249.631 165.627 248.66C164.633 247.688 164.136 246.311 164.136 244.529V237.878H167.529V244.426C167.529 245.454 167.729 246.191 168.129 246.637C168.541 247.083 169.1 247.305 169.809 247.305C170.517 247.305 171.072 247.083 171.471 246.637C171.871 246.191 172.071 245.454 172.071 244.426V237.878H175.414V244.529C175.414 246.311 174.917 247.688 173.922 248.66C172.928 249.631 171.546 250.116 169.775 250.116ZM177.713 249.876V237.878H180.507L187.123 245.866H185.803V237.878H189.128V249.876H186.334L179.718 241.889H181.038V249.876H177.713ZM191.522 249.876V237.878H197.195C198.521 237.878 199.686 238.124 200.692 238.615C201.697 239.107 202.48 239.798 203.04 240.689C203.611 241.581 203.897 242.643 203.897 243.877C203.897 245.1 203.611 246.163 203.04 247.066C202.48 247.957 201.697 248.648 200.692 249.139C199.686 249.631 198.521 249.876 197.195 249.876H191.522ZM194.915 247.168H197.058C197.744 247.168 198.338 247.043 198.841 246.791C199.355 246.528 199.755 246.151 200.04 245.66C200.326 245.157 200.469 244.563 200.469 243.877C200.469 243.18 200.326 242.586 200.04 242.095C199.755 241.604 199.355 241.232 198.841 240.981C198.338 240.718 197.744 240.587 197.058 240.587H194.915V247.168ZM208.802 242.523H214.372V245.06H208.802V242.523ZM209.042 247.254H215.315V249.876H205.682V237.878H215.092V240.501H209.042V247.254ZM217.198 249.876V237.878H222.683C223.78 237.878 224.723 238.056 225.511 238.41C226.311 238.764 226.928 239.278 227.362 239.952C227.797 240.615 228.014 241.404 228.014 242.318C228.014 243.22 227.797 244.003 227.362 244.666C226.928 245.317 226.311 245.82 225.511 246.174C224.723 246.517 223.78 246.688 222.683 246.688H219.084L220.592 245.266V249.876H217.198ZM224.62 249.876L221.638 245.506H225.254L228.254 249.876H224.62ZM220.592 245.626L219.084 244.066H222.477C223.186 244.066 223.711 243.912 224.054 243.603C224.409 243.295 224.586 242.866 224.586 242.318C224.586 241.758 224.409 241.324 224.054 241.015C223.711 240.707 223.186 240.552 222.477 240.552H219.084L220.592 238.993V245.626Z" fill="white"/>
<path d="M167.271 262.5C166.857 262.5 166.473 262.435 166.119 262.305C165.77 262.171 165.466 261.981 165.206 261.737C164.952 261.492 164.753 261.206 164.608 260.877C164.463 260.542 164.391 260.176 164.391 259.777C164.391 259.378 164.463 259.014 164.608 258.685C164.753 258.351 164.952 258.062 165.206 257.817C165.466 257.573 165.77 257.386 166.119 257.256C166.473 257.122 166.857 257.054 167.271 257.054C167.755 257.054 168.186 257.139 168.565 257.309C168.949 257.478 169.268 257.723 169.522 258.042L168.58 258.894C168.41 258.695 168.223 258.543 168.019 258.438C167.819 258.333 167.595 258.281 167.346 258.281C167.131 258.281 166.934 258.316 166.755 258.386C166.575 258.456 166.421 258.558 166.291 258.692C166.166 258.822 166.067 258.979 165.992 259.164C165.922 259.348 165.887 259.553 165.887 259.777C165.887 260.001 165.922 260.206 165.992 260.39C166.067 260.575 166.166 260.734 166.291 260.869C166.421 260.999 166.575 261.098 166.755 261.168C166.934 261.238 167.131 261.273 167.346 261.273C167.595 261.273 167.819 261.221 168.019 261.116C168.223 261.011 168.41 260.859 168.58 260.66L169.522 261.512C169.268 261.827 168.949 262.071 168.565 262.245C168.186 262.415 167.755 262.5 167.271 262.5ZM172.714 262.5C172.295 262.5 171.908 262.432 171.554 262.298C171.2 262.163 170.891 261.974 170.627 261.729C170.367 261.48 170.165 261.191 170.021 260.862C169.876 260.532 169.804 260.171 169.804 259.777C169.804 259.383 169.876 259.022 170.021 258.692C170.165 258.363 170.367 258.077 170.627 257.832C170.891 257.583 171.2 257.391 171.554 257.256C171.908 257.122 172.295 257.054 172.714 257.054C173.137 257.054 173.524 257.122 173.873 257.256C174.227 257.391 174.534 257.583 174.793 257.832C175.052 258.077 175.254 258.363 175.399 258.692C175.548 259.022 175.623 259.383 175.623 259.777C175.623 260.171 175.548 260.535 175.399 260.869C175.254 261.198 175.052 261.485 174.793 261.729C174.534 261.974 174.227 262.163 173.873 262.298C173.524 262.432 173.137 262.5 172.714 262.5ZM172.714 261.273C172.913 261.273 173.098 261.238 173.267 261.168C173.442 261.098 173.591 260.999 173.716 260.869C173.846 260.734 173.945 260.575 174.015 260.39C174.09 260.206 174.127 260.001 174.127 259.777C174.127 259.548 174.09 259.343 174.015 259.164C173.945 258.979 173.846 258.822 173.716 258.692C173.591 258.558 173.442 258.456 173.267 258.386C173.098 258.316 172.913 258.281 172.714 258.281C172.514 258.281 172.327 258.316 172.153 258.386C171.983 258.456 171.833 258.558 171.704 258.692C171.579 258.822 171.479 258.979 171.405 259.164C171.335 259.343 171.3 259.548 171.3 259.777C171.3 260.001 171.335 260.206 171.405 260.39C171.479 260.575 171.579 260.734 171.704 260.869C171.833 260.999 171.983 261.098 172.153 261.168C172.327 261.238 172.514 261.273 172.714 261.273ZM176.399 262.395V257.159H177.618L180.505 260.645H179.93V257.159H181.381V262.395H180.161L177.274 258.909H177.85V262.395H176.399ZM184.265 262.5C183.837 262.5 183.423 262.447 183.024 262.343C182.63 262.233 182.308 262.093 182.059 261.924L182.545 260.832C182.779 260.981 183.049 261.106 183.353 261.206C183.662 261.3 183.969 261.348 184.273 261.348C184.477 261.348 184.642 261.33 184.767 261.295C184.891 261.256 184.981 261.206 185.036 261.146C185.096 261.081 185.126 261.006 185.126 260.921C185.126 260.802 185.071 260.707 184.961 260.637C184.851 260.567 184.709 260.51 184.535 260.465C184.36 260.42 184.166 260.375 183.951 260.331C183.742 260.286 183.53 260.228 183.315 260.158C183.106 260.089 182.914 259.999 182.739 259.889C182.565 259.775 182.423 259.627 182.313 259.448C182.203 259.263 182.149 259.032 182.149 258.752C182.149 258.438 182.233 258.154 182.403 257.9C182.577 257.645 182.837 257.441 183.181 257.286C183.525 257.132 183.954 257.054 184.467 257.054C184.811 257.054 185.148 257.094 185.477 257.174C185.811 257.249 186.108 257.361 186.367 257.511L185.911 258.61C185.662 258.475 185.415 258.376 185.17 258.311C184.926 258.241 184.689 258.206 184.46 258.206C184.255 258.206 184.091 258.229 183.966 258.274C183.842 258.313 183.752 258.368 183.697 258.438C183.642 258.508 183.615 258.588 183.615 258.677C183.615 258.792 183.667 258.884 183.772 258.954C183.881 259.019 184.024 259.074 184.198 259.119C184.378 259.159 184.572 259.201 184.782 259.246C184.996 259.291 185.208 259.348 185.417 259.418C185.632 259.483 185.826 259.573 186.001 259.687C186.175 259.797 186.315 259.944 186.42 260.129C186.529 260.308 186.584 260.535 186.584 260.809C186.584 261.113 186.497 261.395 186.322 261.654C186.153 261.909 185.896 262.113 185.552 262.268C185.213 262.422 184.784 262.5 184.265 262.5ZM188.31 262.395V258.333H186.702V257.159H191.392V258.333H189.791V262.395H188.31ZM191.943 262.395V257.159H194.337C194.816 257.159 195.227 257.236 195.571 257.391C195.92 257.545 196.189 257.77 196.379 258.064C196.568 258.353 196.663 258.697 196.663 259.096C196.663 259.49 196.568 259.832 196.379 260.121C196.189 260.405 195.92 260.625 195.571 260.779C195.227 260.929 194.816 261.004 194.337 261.004H192.766L193.424 260.383V262.395H191.943ZM195.182 262.395L193.881 260.488H195.459L196.768 262.395H195.182ZM193.424 260.54L192.766 259.859H194.247C194.556 259.859 194.786 259.792 194.935 259.657C195.09 259.523 195.167 259.336 195.167 259.096C195.167 258.852 195.09 258.662 194.935 258.528C194.786 258.393 194.556 258.326 194.247 258.326H192.766L193.424 257.645V260.54ZM199.896 262.5C199.123 262.5 198.52 262.288 198.086 261.864C197.652 261.44 197.435 260.839 197.435 260.061V257.159H198.916V260.016C198.916 260.465 199.004 260.787 199.178 260.981C199.358 261.176 199.602 261.273 199.911 261.273C200.22 261.273 200.462 261.176 200.637 260.981C200.811 260.787 200.899 260.465 200.899 260.016V257.159H202.357V260.061C202.357 260.839 202.14 261.44 201.706 261.864C201.273 262.288 200.669 262.5 199.896 262.5ZM205.971 262.5C205.557 262.5 205.173 262.435 204.819 262.305C204.47 262.171 204.166 261.981 203.907 261.737C203.652 261.492 203.453 261.206 203.308 260.877C203.164 260.542 203.091 260.176 203.091 259.777C203.091 259.378 203.164 259.014 203.308 258.685C203.453 258.351 203.652 258.062 203.907 257.817C204.166 257.573 204.47 257.386 204.819 257.256C205.173 257.122 205.557 257.054 205.971 257.054C206.455 257.054 206.886 257.139 207.265 257.309C207.649 257.478 207.968 257.723 208.223 258.042L207.28 258.894C207.111 258.695 206.924 258.543 206.719 258.438C206.52 258.333 206.295 258.281 206.046 258.281C205.831 258.281 205.634 258.316 205.455 258.386C205.275 258.456 205.121 258.558 204.991 258.692C204.867 258.822 204.767 258.979 204.692 259.164C204.622 259.348 204.587 259.553 204.587 259.777C204.587 260.001 204.622 260.206 204.692 260.39C204.767 260.575 204.867 260.734 204.991 260.869C205.121 260.999 205.275 261.098 205.455 261.168C205.634 261.238 205.831 261.273 206.046 261.273C206.295 261.273 206.52 261.221 206.719 261.116C206.924 261.011 207.111 260.859 207.28 260.66L208.223 261.512C207.968 261.827 207.649 262.071 207.265 262.245C206.886 262.415 206.455 262.5 205.971 262.5ZM209.954 262.395V258.333H208.345V257.159H213.035V258.333H211.435V262.395H209.954ZM213.587 262.395V257.159H215.068V262.395H213.587ZM218.762 262.5C218.343 262.5 217.957 262.432 217.603 262.298C217.249 262.163 216.94 261.974 216.675 261.729C216.416 261.48 216.214 261.191 216.069 260.862C215.925 260.532 215.853 260.171 215.853 259.777C215.853 259.383 215.925 259.022 216.069 258.692C216.214 258.363 216.416 258.077 216.675 257.832C216.94 257.583 217.249 257.391 217.603 257.256C217.957 257.122 218.343 257.054 218.762 257.054C219.186 257.054 219.573 257.122 219.922 257.256C220.276 257.391 220.582 257.583 220.842 257.832C221.101 258.077 221.303 258.363 221.448 258.692C221.597 259.022 221.672 259.383 221.672 259.777C221.672 260.171 221.597 260.535 221.448 260.869C221.303 261.198 221.101 261.485 220.842 261.729C220.582 261.974 220.276 262.163 219.922 262.298C219.573 262.432 219.186 262.5 218.762 262.5ZM218.762 261.273C218.962 261.273 219.146 261.238 219.316 261.168C219.49 261.098 219.64 260.999 219.765 260.869C219.894 260.734 219.994 260.575 220.064 260.39C220.139 260.206 220.176 260.001 220.176 259.777C220.176 259.548 220.139 259.343 220.064 259.164C219.994 258.979 219.894 258.822 219.765 258.692C219.64 258.558 219.49 258.456 219.316 258.386C219.146 258.316 218.962 258.281 218.762 258.281C218.563 258.281 218.376 258.316 218.201 258.386C218.032 258.456 217.882 258.558 217.752 258.692C217.628 258.822 217.528 258.979 217.453 259.164C217.383 259.343 217.349 259.548 217.349 259.777C217.349 260.001 217.383 260.206 217.453 260.39C217.528 260.575 217.628 260.734 217.752 260.869C217.882 260.999 218.032 261.098 218.201 261.168C218.376 261.238 218.563 261.273 218.762 261.273ZM222.448 262.395V257.159H223.667L226.554 260.645H225.978V257.159H227.429V262.395H226.21L223.323 258.909H223.899V262.395H222.448Z" fill="white"/>
<path d="M123.282 265.093H78.2549L91.7143 203.292H109.823L123.282 265.093Z" fill="#E87EA9"/>
<mask id="mask1_50_3362" style="mask-type:luminance" maskUnits="userSpaceOnUse" x="78" y="203" width="46" height="63">
<path d="M123.282 265.093H78.2549L91.7143 203.292H109.823L123.282 265.093Z" fill="white"/>
</mask>
<g mask="url(#mask1_50_3362)">
<path d="M128.981 248.979H72.5684V258.297H128.981V248.979Z" fill="white"/>
<path d="M72.5684 228.787V237.652V238.117H128.981V237.652V228.787V228.333H72.5684V228.787Z" fill="white"/>
<path d="M128.981 208.142H72.5684V217.46H128.981V208.142Z" fill="white"/>
</g>
<path d="M129.787 267.126C129.783 267.806 129.512 268.457 129.032 268.937C128.552 269.416 127.902 269.685 127.224 269.685H73.6914C73.0139 269.685 72.364 269.416 71.8838 268.937C71.4035 268.457 71.1321 267.806 71.1289 267.126C71.1289 266.444 71.3989 265.79 71.8795 265.308C72.36 264.826 73.0118 264.555 73.6914 264.555H127.224C127.904 264.555 128.556 264.826 129.036 265.308C129.517 265.79 129.787 266.444 129.787 267.126Z" fill="white"/>
<g opacity="0.2">
<path d="M109.823 203.292H103.783L117.23 265.093H123.282L109.823 203.292Z" fill="white"/>
</g>
<path d="M328.969 265.093H283.941L297.401 203.292H315.509L328.969 265.093Z" fill="#E87EA9"/>
<mask id="mask2_50_3362" style="mask-type:luminance" maskUnits="userSpaceOnUse" x="283" y="203" width="46" height="63">
<path d="M328.969 265.093H283.941L297.401 203.292H315.509L328.969 265.093Z" fill="white"/>
</mask>
<g mask="url(#mask2_50_3362)">
<path d="M334.667 248.979H278.255V258.297H334.667V248.979Z" fill="white"/>
<path d="M278.255 228.787V237.652V238.117H334.667V237.652V228.787V228.333H278.255V228.787Z" fill="white"/>
<path d="M334.667 208.142H278.255V217.46H334.667V208.142Z" fill="white"/>
</g>
<path d="M335.473 267.126C335.469 267.804 335.2 268.453 334.722 268.932C334.245 269.411 333.598 269.682 332.922 269.685H279.439C278.761 269.685 278.111 269.416 277.631 268.937C277.151 268.457 276.879 267.806 276.876 267.126C276.876 266.444 277.146 265.79 277.627 265.308C278.107 264.826 278.759 264.555 279.439 264.555H332.983C333.661 264.558 334.31 264.83 334.787 265.312C335.265 265.794 335.534 266.446 335.534 267.126H335.473Z" fill="white"/>
<g opacity="0.2">
<path d="M315.51 203.292H309.469L322.916 265.093H328.969L315.51 203.292Z" fill="white"/>
</g>
<path d="M365.442 174.492H358.267V289.706H365.442V174.492Z" fill="#CCC4C0"/>
<path d="M346.858 179.586C345.526 179.509 344.231 179.12 343.076 178.45C341.921 177.78 340.939 176.848 340.208 175.729L325.198 149.647C324.598 148.45 324.285 147.129 324.285 145.79C324.285 144.45 324.598 143.129 325.198 141.932L340.208 115.85C340.939 114.731 341.921 113.799 343.076 113.129C344.231 112.459 345.526 112.07 346.858 111.993H376.864C378.198 112.069 379.495 112.457 380.653 113.127C381.81 113.797 382.794 114.729 383.527 115.85L398.524 141.932C399.124 143.129 399.437 144.45 399.437 145.79C399.437 147.129 399.124 148.45 398.524 149.647L383.527 175.729C382.794 176.85 381.81 177.783 380.653 178.452C379.495 179.122 378.198 179.511 376.864 179.586H346.858Z" fill="#E87EA9"/>
<path d="M374.887 176.61H348.835C347.419 176.545 346.039 176.139 344.812 175.427C343.585 174.715 342.545 173.719 341.782 172.521L328.749 149.879C328.1 148.615 327.761 147.212 327.761 145.79C327.761 144.367 328.1 142.964 328.749 141.7L341.782 119.059C342.547 117.862 343.587 116.866 344.813 116.155C346.04 115.443 347.419 115.037 348.835 114.969H374.887C376.302 115.039 377.68 115.446 378.907 116.157C380.134 116.869 381.173 117.863 381.94 119.059L394.96 141.7C395.616 142.963 395.958 144.366 395.958 145.79C395.958 147.214 395.616 148.616 394.96 149.879L381.94 172.521C381.174 173.717 380.134 174.712 378.908 175.423C377.681 176.135 376.302 176.542 374.887 176.61ZM348.835 117.932C347.938 117.996 347.068 118.264 346.289 118.716C345.511 119.168 344.846 119.792 344.344 120.54L331.312 143.181C330.914 143.993 330.708 144.885 330.708 145.79C330.708 146.694 330.914 147.586 331.312 148.398L344.344 171.039C344.846 171.787 345.511 172.411 346.289 172.863C347.068 173.315 347.938 173.583 348.835 173.647H374.887C375.785 173.581 376.657 173.313 377.437 172.861C378.216 172.409 378.884 171.786 379.39 171.039L392.41 148.398C392.807 147.586 393.014 146.694 393.014 145.79C393.014 144.885 392.807 143.993 392.41 143.181L379.39 120.54C378.884 119.793 378.216 119.17 377.437 118.718C376.657 118.266 375.785 117.998 374.887 117.932H348.835Z" fill="white"/>
<path d="M361.867 147.014C361.867 147.014 356.876 124.067 361.867 124.067C366.858 124.067 361.867 147.014 361.867 147.014Z" fill="white"/>
<path d="M364.295 152.034C364.295 152.519 364.152 152.992 363.884 153.395C363.616 153.798 363.234 154.112 362.789 154.297C362.343 154.482 361.852 154.531 361.378 154.436C360.905 154.342 360.47 154.109 360.129 153.766C359.788 153.424 359.555 152.987 359.461 152.512C359.367 152.037 359.415 151.545 359.6 151.097C359.785 150.65 360.097 150.267 360.499 149.998C360.9 149.729 361.372 149.585 361.855 149.585C362.502 149.585 363.123 149.843 363.58 150.303C364.038 150.762 364.295 151.385 364.295 152.034Z" fill="white"/>
<path d="M351.774 165.195C351.367 165.195 350.974 165.145 350.595 165.046C350.221 164.942 349.916 164.809 349.679 164.648L350.141 163.612C350.363 163.754 350.619 163.872 350.908 163.967C351.201 164.057 351.492 164.102 351.781 164.102C351.975 164.102 352.131 164.085 352.25 164.052C352.368 164.014 352.453 163.967 352.505 163.91C352.562 163.848 352.59 163.777 352.59 163.697C352.59 163.583 352.538 163.493 352.434 163.427C352.33 163.361 352.195 163.307 352.029 163.264C351.864 163.221 351.679 163.179 351.476 163.136C351.277 163.094 351.076 163.039 350.872 162.973C350.673 162.907 350.491 162.821 350.325 162.717C350.16 162.608 350.025 162.469 349.921 162.298C349.817 162.123 349.765 161.903 349.765 161.638C349.765 161.34 349.845 161.07 350.006 160.829C350.172 160.587 350.418 160.393 350.744 160.246C351.071 160.1 351.478 160.026 351.966 160.026C352.292 160.026 352.612 160.064 352.924 160.14C353.241 160.211 353.523 160.317 353.769 160.459L353.336 161.503C353.099 161.375 352.865 161.281 352.633 161.219C352.401 161.153 352.176 161.12 351.958 161.12C351.764 161.12 351.608 161.141 351.49 161.184C351.372 161.221 351.286 161.274 351.234 161.34C351.182 161.406 351.156 161.482 351.156 161.567C351.156 161.676 351.206 161.763 351.305 161.83C351.409 161.891 351.544 161.943 351.71 161.986C351.88 162.024 352.065 162.064 352.264 162.107C352.467 162.149 352.668 162.204 352.867 162.27C353.071 162.331 353.255 162.417 353.421 162.526C353.587 162.63 353.719 162.769 353.819 162.944C353.923 163.115 353.975 163.33 353.975 163.591C353.975 163.879 353.892 164.147 353.726 164.393C353.565 164.634 353.322 164.828 352.995 164.975C352.673 165.122 352.266 165.195 351.774 165.195ZM355.613 165.096V161.24H354.086V160.126H358.538V161.24H357.019V165.096H355.613ZM361.499 165.195C361.101 165.195 360.734 165.131 360.398 165.003C360.062 164.876 359.769 164.696 359.518 164.464C359.272 164.227 359.08 163.953 358.943 163.64C358.805 163.328 358.737 162.985 358.737 162.611C358.737 162.237 358.805 161.894 358.943 161.581C359.08 161.269 359.272 160.997 359.518 160.765C359.769 160.528 360.062 160.346 360.398 160.218C360.734 160.09 361.101 160.026 361.499 160.026C361.901 160.026 362.268 160.09 362.599 160.218C362.935 160.346 363.226 160.528 363.473 160.765C363.719 160.997 363.91 161.269 364.048 161.581C364.19 161.894 364.261 162.237 364.261 162.611C364.261 162.985 364.19 163.33 364.048 163.647C363.91 163.96 363.719 164.232 363.473 164.464C363.226 164.696 362.935 164.876 362.599 165.003C362.268 165.131 361.901 165.195 361.499 165.195ZM361.499 164.031C361.688 164.031 361.863 163.998 362.024 163.931C362.19 163.865 362.332 163.77 362.45 163.647C362.573 163.52 362.668 163.368 362.734 163.193C362.805 163.018 362.841 162.824 362.841 162.611C362.841 162.393 362.805 162.199 362.734 162.029C362.668 161.853 362.573 161.704 362.45 161.581C362.332 161.453 362.19 161.356 362.024 161.29C361.863 161.224 361.688 161.191 361.499 161.191C361.309 161.191 361.132 161.224 360.966 161.29C360.805 161.356 360.663 161.453 360.54 161.581C360.422 161.704 360.327 161.853 360.256 162.029C360.19 162.199 360.157 162.393 360.157 162.611C360.157 162.824 360.19 163.018 360.256 163.193C360.327 163.368 360.422 163.52 360.54 163.647C360.663 163.77 360.805 163.865 360.966 163.931C361.132 163.998 361.309 164.031 361.499 164.031ZM364.997 165.096V160.126H367.269C367.723 160.126 368.114 160.199 368.44 160.346C368.772 160.493 369.027 160.706 369.207 160.985C369.387 161.259 369.477 161.586 369.477 161.965C369.477 162.339 369.387 162.663 369.207 162.937C369.027 163.212 368.772 163.425 368.44 163.576C368.114 163.723 367.723 163.796 367.269 163.796H365.778L366.403 163.186V165.096H364.997ZM366.403 163.335L365.778 162.689H367.184C367.477 162.689 367.695 162.625 367.837 162.497C367.984 162.369 368.057 162.192 368.057 161.965C368.057 161.733 367.984 161.553 367.837 161.425C367.695 161.297 367.477 161.233 367.184 161.233H365.778L366.403 160.587V163.335Z" fill="white"/>
<path d="M60.5613 234.958C56.9005 229.215 51.0311 229.215 47.4069 234.958L24.2465 271.84C20.5857 277.595 23.2092 282.297 29.9939 282.297H77.9743C84.759 282.297 87.3337 277.595 83.7217 271.84L60.5613 234.958Z" fill="#FFC536"/>
<path d="M77.9744 283.559H29.994C26.2234 283.559 23.4168 282.236 22.0867 279.812C20.7566 277.387 21.1349 274.314 23.1483 271.106L46.3332 234.273C48.3344 231.101 51.0556 229.375 54.0086 229.375C56.9616 229.375 59.6828 231.126 61.684 234.273L84.8689 271.106C86.8823 274.314 87.3094 277.4 85.9305 279.812C84.5516 282.224 81.7572 283.559 77.9744 283.559ZM53.9842 231.958C51.9586 231.958 50.0062 233.268 48.5053 235.632L25.3204 272.477C23.8317 274.84 23.4778 276.983 24.332 278.6C25.1862 280.216 27.1874 281.049 29.9696 281.049H77.9744C80.7566 281.049 82.7579 280.191 83.612 278.6C84.4662 277.008 84.1123 274.926 82.6236 272.477L59.4388 235.632C57.9622 233.268 56.0098 231.958 53.9842 231.958Z" fill="white"/>
<path d="M53.984 266.11C53.984 266.11 48.3708 240.285 53.984 240.285C59.5972 240.285 53.984 266.11 53.984 266.11Z" fill="white"/>
<path d="M56.7177 271.755C56.7177 272.297 56.5574 272.827 56.2571 273.278C55.9567 273.73 55.5298 274.081 55.0304 274.289C54.5309 274.496 53.9813 274.551 53.4511 274.445C52.9209 274.339 52.4338 274.078 52.0516 273.694C51.6693 273.311 51.409 272.822 51.3035 272.29C51.198 271.758 51.2522 271.206 51.459 270.705C51.6659 270.204 52.0163 269.775 52.4658 269.474C52.9153 269.173 53.4437 269.012 53.9844 269.012C54.7093 269.012 55.4045 269.301 55.9171 269.815C56.4297 270.329 56.7177 271.027 56.7177 271.755Z" fill="white"/>
</g>
<defs>
<linearGradient id="paint0_linear_50_3362" x1="111.836" y1="198.076" x2="209.823" y2="198.076" gradientUnits="userSpaceOnUse">
<stop stop-color="#B59AFE"/>
<stop offset="0.29" stop-color="#B09AFE"/>
<stop offset="1" stop-color="#3A9AFE"/>
</linearGradient>
<clipPath id="clip0_50_3362">
<rect width="400" height="317" fill="white"/>
</clipPath>
</defs>
</svg>
